<svg xmlns="http://www.w3.org/2000/svg" width="1200" height="400" viewBox="0 0 1200 400" role="img" aria-label="Verified technical skills and current study path"><style>:root{--fg:#f1fff5;--muted:#83b792;--green:#43ff91;--line:#43ff91;--ochre:#d0a236;--pale:#f1dda0}@media(prefers-color-scheme:light){:root{--fg:#174d2a;--muted:#1a7f37;--green:#1a7f37;--line:#1a7f37;--ochre:#946b16;--pale:#ead792}}@media(prefers-reduced-motion:reduce){animate,animateTransform,animateMotion{display:none}}.fg{fill:var(--fg)}.m{fill:var(--muted)}.g{fill:var(--green)}.line{stroke:var(--line)}.gl{stroke:var(--green)}.y{fill:var(--ochre)}.yl{stroke:var(--ochre)}.active{fill:var(--pale);stroke:var(--ochre)}</style><rect x="1.5" y="1.5" width="1197" height="397" rx="16" fill="none" class="line" stroke-opacity=".38" stroke-width="2"/><g font-family="ui-monospace, SFMono-Regular, Menlo, Consolas, monospace"><text x="36" y="52" font-size="22"><tspan class="y">$</tspan><tspan dx="12" class="g">load_modules --technical-stack</tspan></text><g transform="translate(32 86)"><g><rect width="271" height="270" rx="12" fill="none" class="line" stroke-opacity=".38"/><text x="22" y="42" class="g" font-size="18">01 / SECURITY</text><path d="M22 60h227" class="line" stroke-opacity=".34"/><text x="22" y="101" class="fg" font-size="18">Security+ concepts</text><text x="22" y="140" class="m" font-size="16">Web app security</text><text x="22" y="179" class="m" font-size="16">Threats · vulnerabilities</text><text x="22" y="218" class="m" font-size="16">Risk · cryptography</text></g><g transform="translate(287)"><rect width="271" height="270" rx="12" fill="none" class="line" stroke-opacity=".38"/><text x="22" y="42" class="g" font-size="18">02 / SYSTEMS</text><path d="M22 60h227" class="line" stroke-opacity=".34"/><text x="22" y="101" class="fg" font-size="18">Linux · shell</text><text x="22" y="140" class="m" font-size="16">Bash</text><text x="22" y="179" class="m" font-size="16">Networking basics</text><text x="22" y="218" class="m" font-size="16">Docker · VMs</text></g><g transform="translate(574)"><rect width="271" height="270" rx="12" fill="none" class="line" stroke-opacity=".38"/><text x="22" y="42" class="g" font-size="18">03 / DEVELOPMENT</text><path d="M22 60h227" class="line" stroke-opacity=".34"/><text x="22" y="101" class="fg" font-size="18">Python</text><text x="22" y="140" class="m" font-size="16">PHP</text><text x="22" y="179" class="m" font-size="16">JavaScript · Node.js</text><text x="22" y="218" class="m" font-size="16">SQL · MySQL</text></g><g transform="translate(861)"><rect width="271" height="270" rx="12" fill="none" class="yl" stroke-opacity=".52"/><text x="22" y="42" class="y" font-size="18">04 / CURRENT PATH</text><path d="M22 60h227" class="yl" stroke-opacity=".45"/><text x="22" y="101" class="fg" font-size="18">CCNA 200-301</text><text x="22" y="140" class="m" font-size="16">eJPT</text><text x="22" y="179" class="m" font-size="16">TryHackMe labs</text><text x="22" y="218" class="m" font-size="16">Offensive security</text><text x="22" y="250" class="y" font-size="14">● IN PROGRESS</text></g></g></g></svg>