<svg xmlns="http://www.w3.org/2000/svg" width="600" height="760" viewBox="0 0 600 760" role="img" aria-label="Technical stack and current study"><style>:root{--fg:#f1fff5;--muted:#83b792;--green:#43ff91;--line:#43ff91;--ochre:#d0a236;--pale:#f1dda0}@media(prefers-color-scheme:light){:root{--fg:#174d2a;--muted:#1a7f37;--green:#1a7f37;--line:#1a7f37;--ochre:#946b16;--pale:#ead792}}@media(prefers-reduced-motion:reduce){animate,animateTransform,animateMotion{display:none}}.fg{fill:var(--fg)}.m{fill:var(--muted)}.g{fill:var(--green)}.line{stroke:var(--line)}.gl{stroke:var(--green)}.y{fill:var(--ochre)}.yl{stroke:var(--ochre)}.active{fill:var(--pale);stroke:var(--ochre)}</style><rect x="1.5" y="1.5" width="597" height="757" rx="16" fill="none" class="line" stroke-opacity=".38" stroke-width="2"/><g font-family="ui-monospace, SFMono-Regular, Menlo, Consolas, monospace"><text x="28" y="52" font-size="21"><tspan class="y">$</tspan><tspan dx="10" class="g">load_modules --stack</tspan></text><g transform="translate(28 84)"><g><rect width="260" height="292" rx="12" fill="none" class="line" stroke-opacity=".38"/><text x="18" y="40" class="g" font-size="18">01 / SECURITY</text><path d="M18 58h224" class="line" stroke-opacity=".34"/><text x="18" y="98" class="fg" font-size="18">Security+ foundations</text><text x="18" y="139" class="m" font-size="17">Web app security</text><text x="18" y="180" class="m" font-size="17">Threats</text><text x="18" y="211" class="m" font-size="17">Vulnerabilities</text><text x="18" y="252" class="m" font-size="17">Risk · cryptography</text></g><g transform="translate(284)"><rect width="260" height="292" rx="12" fill="none" class="line" stroke-opacity=".38"/><text x="18" y="40" class="g" font-size="18">02 / SYSTEMS</text><path d="M18 58h224" class="line" stroke-opacity=".34"/><text x="18" y="98" class="fg" font-size="18">Linux · shell</text><text x="18" y="139" class="m" font-size="17">Bash</text><text x="18" y="180" class="m" font-size="17">Networking</text><text x="18" y="221" class="m" font-size="17">Docker · VMs</text></g><g transform="translate(0 316)"><rect width="260" height="292" rx="12" fill="none" class="line" stroke-opacity=".38"/><text x="18" y="40" class="g" font-size="18">03 / DEVELOPMENT</text><path d="M18 58h224" class="line" stroke-opacity=".34"/><text x="18" y="98" class="fg" font-size="18">Python</text><text x="18" y="139" class="m" font-size="17">PHP</text><text x="18" y="180" class="m" font-size="17">JavaScript · Node.js</text><text x="18" y="221" class="m" font-size="17">SQL · MySQL</text></g><g transform="translate(284 316)"><rect width="260" height="292" rx="12" fill="none" class="yl" stroke-opacity=".52"/><text x="18" y="40" class="y" font-size="18">04 / CURRENT</text><path d="M18 58h224" class="yl" stroke-opacity=".45"/><text x="18" y="98" class="fg" font-size="18">CCNA 200-301</text><text x="18" y="139" class="m" font-size="17">eJPT</text><text x="18" y="180" class="m" font-size="17">TryHackMe labs</text><text x="18" y="221" class="m" font-size="17">Offensive security</text><text x="18" y="262" class="y" font-size="14">● IN PROGRESS</text></g></g></g></svg>