<svg xmlns="http://www.w3.org/2000/svg" width="1200" height="390" viewBox="0 0 1200 390" role="img" aria-labelledby="t d">
<title id="t">Chiara Berti — Cybersecurity Professional</title><desc id="d">Animated retro CRT terminal profile banner</desc>
<defs>
 <linearGradient id="bg" x2="1" y2="1"><stop stop-color="#050806"/><stop offset=".55" stop-color="#0a130e"/><stop offset="1" stop-color="#030504"/></linearGradient>
 <radialGradient id="screen"><stop stop-color="#143421"/><stop offset="1" stop-color="#061009"/></radialGradient>
 <linearGradient id="beam" x1="0" y1="0" x2="0" y2="1"><stop stop-color="#43ff91" stop-opacity="0"/><stop offset=".5" stop-color="#43ff91" stop-opacity=".13"/><stop offset="1" stop-color="#43ff91" stop-opacity="0"/></linearGradient>
 <pattern id="scan" width="3" height="3" patternUnits="userSpaceOnUse"><path d="M0 2.2h3" stroke="#000" stroke-opacity=".32"/></pattern>
 <pattern id="dots" width="18" height="18" patternUnits="userSpaceOnUse"><circle cx="1" cy="1" r="1" fill="#43ff91" opacity=".16"/></pattern>
 <filter id="glow"><feGaussianBlur stdDeviation="3" result="x"/><feMerge><feMergeNode in="x"/><feMergeNode in="SourceGraphic"/></feMerge></filter>
</defs>
<rect width="1200" height="390" rx="26" fill="url(#bg)"/>
<rect x="18" y="18" width="1164" height="354" rx="18" fill="#111713" stroke="#38483d" stroke-width="3"/>
<rect x="42" y="42" width="1116" height="306" rx="42" fill="url(#screen)" stroke="#43ff91" stroke-opacity=".35" stroke-width="3"/>
<rect x="42" y="42" width="1116" height="306" rx="42" fill="url(#dots)"/>
<g font-family="'Courier New',monospace">
 <text x="80" y="84" fill="#83b792" font-size="15">SYS://IDENTITY_NODE_13</text>
 <text x="80" y="126" fill="#43ff91" font-size="20" filter="url(#glow)">&gt; WHOAMI_<animate attributeName="opacity" values="1;1;.35;1" dur="2.4s" repeatCount="indefinite"/></text>
 <text x="80" y="194" fill="#f1fff5" font-size="55" font-weight="700" letter-spacing="2">CHIARA BERTI</text>
 <text x="82" y="238" fill="#43ff91" font-size="22" font-weight="700">CYBERSECURITY PROFESSIONAL</text>
 <text x="82" y="278" fill="#d2ead9" font-size="17">SECURITY+  ::  LINUX  ::  WEB SECURITY &amp; DEVELOPMENT</text>
 <text x="82" y="319" fill="#91b89d" font-size="16">TARGET  [ APPLICATION SECURITY / PENTEST / RED TEAM ]</text>
</g>
<g transform="translate(888 73)" stroke="#43ff91" fill="none">
 <path d="M104 0v28M104 218v28M0 123h28M180 123h28" opacity=".35"/>
 <circle cx="104" cy="123" r="92" opacity=".18"/>
 <circle cx="104" cy="123" r="72" stroke-dasharray="5 8" opacity=".55"><animateTransform attributeName="transform" type="rotate" from="0 104 123" to="360 104 123" dur="16s" repeatCount="indefinite"/></circle>
 <path d="M104 57l54 23v38c0 43-25 70-54 81-29-11-54-38-54-81V80z" fill="#09170f" stroke-width="3" filter="url(#glow)"><animate attributeName="stroke-opacity" values=".55;1;.55" dur="2.8s" repeatCount="indefinite"/></path>
 <rect x="80" y="111" width="48" height="42" rx="5" stroke-width="4"/><path d="M89 111V96a15 15 0 0130 0v15M92 132h24" stroke-width="4"/><circle cx="104" cy="132" r="4" fill="#43ff91"/>
</g>
<rect x="42" y="42" width="1116" height="306" rx="42" fill="url(#scan)"/>
<rect x="42" y="22" width="1116" height="70" fill="url(#beam)" opacity=".9"><animate attributeName="y" values="22;302;22" dur="5.5s" repeatCount="indefinite"/></rect>
<circle cx="1090" cy="365" r="4" fill="#43ff91"><animate attributeName="opacity" values="1;.15;1" dur="1.2s" repeatCount="indefinite"/></circle>
<text x="1104" y="370" fill="#83a98e" font-family="monospace" font-size="12">ONLINE</text>
</svg>